<?xml version="1.0" encoding="utf-8"?>
<!-- Generator: Adobe Illustrator 16.0.0, SVG Export Plug-In . SVG Version: 6.00 Build 0)  -->
<!DOCTYPE svg PUBLIC "-//W3C//DTD SVG 1.1//EN" "http://www.w3.org/Graphics/SVG/1.1/DTD/svg11.dtd">
<svg version="1.1" id="Layer_1" xmlns="http://www.w3.org/2000/svg" xmlns:xlink="http://www.w3.org/1999/xlink" x="0px" y="0px"
	 width="219.839px" height="18.606px" viewBox="0 0 219.839 18.606" enable-background="new 0 0 219.839 18.606"
	 xml:space="preserve">
<g>
	<path d="M0.644,1.988h3.248c0.644,0,1.229,0.028,1.757,0.084s0.985,0.187,1.372,0.392c0.387,0.205,0.693,0.513,0.917,0.924
		s0.35,0.971,0.378,1.68c-0.065,0.747-0.222,1.33-0.469,1.75C7.6,7.238,7.287,7.553,6.909,7.763C6.531,7.973,6.095,8.104,5.6,8.155
		C5.105,8.207,4.568,8.232,3.99,8.232H2.66v3.78H0.644V1.988z M2.66,6.524h1.106c0.327,0,0.639-0.007,0.938-0.021
		c0.298-0.014,0.56-0.068,0.784-0.161c0.224-0.093,0.404-0.236,0.539-0.427C6.162,5.724,6.23,5.451,6.23,5.096
		c0-0.364-0.107-0.665-0.322-0.903C5.693,3.955,5.422,3.808,5.096,3.752c-0.262-0.047-0.747-0.07-1.456-0.07H2.66V6.524z"/>
	<path d="M11.06,5.67c0.635-0.719,1.376-1.078,2.226-1.078c0.504,0,0.915,0.082,1.232,0.245C14.835,5,15.085,5.225,15.267,5.509
		s0.308,0.621,0.378,1.008c0.07,0.388,0.105,0.8,0.105,1.239v4.256h-1.918V8.176c0-0.327-0.007-0.621-0.021-0.882
		s-0.059-0.483-0.133-0.665c-0.075-0.182-0.191-0.322-0.35-0.42c-0.159-0.098-0.388-0.147-0.686-0.147
		c-0.327,0-0.593,0.065-0.798,0.196c-0.206,0.131-0.367,0.303-0.483,0.518s-0.196,0.459-0.238,0.735S11.06,8.074,11.06,8.372v3.64
		H9.142V1.988h1.918V5.67z"/>
	<path d="M18.564,4.746L20.3,9.912l1.694-5.166h1.988l-2.562,6.986c-0.159,0.42-0.29,0.763-0.392,1.029s-0.189,0.48-0.259,0.644
		c-0.07,0.163-0.126,0.285-0.168,0.364c-0.042,0.08-0.082,0.147-0.119,0.203c-0.252,0.373-0.555,0.63-0.91,0.77
		c-0.354,0.14-0.798,0.21-1.33,0.21c-0.187,0-0.369-0.007-0.546-0.021s-0.359-0.044-0.546-0.091l-0.168-1.498
		c0.308,0.056,0.579,0.084,0.812,0.084s0.429-0.035,0.588-0.105c0.159-0.07,0.294-0.168,0.406-0.294
		c0.112-0.126,0.205-0.275,0.28-0.448s0.145-0.357,0.21-0.553l-2.758-7.28H18.564z"/>
	<path d="M26.53,9.646c0.084,0.374,0.252,0.658,0.504,0.854c0.252,0.196,0.602,0.294,1.05,0.294c0.159,0,0.32-0.012,0.483-0.035
		c0.163-0.023,0.31-0.063,0.441-0.119c0.13-0.056,0.238-0.135,0.322-0.238s0.126-0.238,0.126-0.406c0-0.252-0.114-0.45-0.343-0.595
		c-0.229-0.145-0.511-0.271-0.847-0.378c-0.336-0.107-0.705-0.21-1.106-0.308c-0.401-0.098-0.77-0.224-1.106-0.378
		c-0.336-0.154-0.618-0.35-0.847-0.588c-0.229-0.238-0.343-0.548-0.343-0.931c0-0.411,0.084-0.756,0.252-1.036
		s0.392-0.509,0.672-0.686c0.28-0.177,0.607-0.306,0.98-0.385c0.374-0.08,0.761-0.119,1.162-0.119c0.429,0,0.814,0.028,1.155,0.084
		c0.34,0.056,0.642,0.156,0.903,0.301c0.261,0.145,0.487,0.341,0.679,0.588c0.191,0.247,0.348,0.562,0.469,0.945L29.33,6.846
		c-0.075-0.289-0.222-0.509-0.441-0.658c-0.219-0.149-0.53-0.224-0.931-0.224c-0.149,0-0.301,0.005-0.455,0.014
		c-0.154,0.01-0.294,0.035-0.42,0.077s-0.229,0.103-0.308,0.182c-0.08,0.079-0.119,0.189-0.119,0.329c0,0.196,0.117,0.359,0.35,0.49
		c0.233,0.131,0.525,0.252,0.875,0.364c0.35,0.112,0.73,0.226,1.141,0.343c0.41,0.117,0.791,0.259,1.141,0.427
		c0.35,0.168,0.642,0.375,0.875,0.623c0.233,0.248,0.35,0.558,0.35,0.931c0,0.43-0.093,0.798-0.28,1.106
		c-0.187,0.308-0.434,0.56-0.742,0.756c-0.308,0.196-0.66,0.34-1.057,0.434c-0.396,0.093-0.805,0.14-1.225,0.14
		c-0.989,0-1.771-0.201-2.345-0.602c-0.574-0.401-0.955-0.947-1.141-1.638L26.53,9.646z"/>
	<path d="M32.48,1.988h1.918v1.778H32.48V1.988z M32.48,4.746h1.918v7.266H32.48V4.746z"/>
	<path d="M40.222,7.238c-0.14-0.756-0.579-1.134-1.316-1.134c-0.308,0-0.562,0.054-0.763,0.161
		c-0.201,0.107-0.359,0.257-0.476,0.448c-0.117,0.191-0.201,0.417-0.252,0.679c-0.052,0.262-0.077,0.546-0.077,0.854
		c0,0.327,0.021,0.635,0.063,0.924c0.042,0.289,0.124,0.541,0.245,0.756c0.121,0.215,0.285,0.383,0.49,0.504
		c0.205,0.122,0.471,0.182,0.798,0.182c0.364,0,0.66-0.103,0.889-0.308c0.229-0.205,0.395-0.564,0.497-1.078l1.89,0.322
		c-0.392,1.755-1.512,2.632-3.36,2.632c-0.56,0-1.057-0.093-1.491-0.28c-0.434-0.187-0.798-0.446-1.092-0.777
		c-0.294-0.331-0.518-0.73-0.672-1.197c-0.154-0.467-0.231-0.98-0.231-1.54s0.077-1.073,0.231-1.54
		c0.154-0.467,0.38-0.868,0.679-1.204c0.298-0.336,0.665-0.595,1.099-0.777c0.434-0.182,0.936-0.273,1.505-0.273
		c0.887,0,1.589,0.187,2.107,0.56c0.518,0.373,0.894,0.957,1.127,1.75L40.222,7.238z"/>
	<path d="M43.26,6.65c0.121-0.392,0.273-0.719,0.455-0.98c0.182-0.261,0.399-0.474,0.651-0.637c0.252-0.163,0.546-0.278,0.882-0.343
		c0.336-0.065,0.719-0.098,1.148-0.098c0.308,0,0.602,0.012,0.882,0.035c0.28,0.023,0.544,0.072,0.791,0.147
		c0.248,0.075,0.469,0.182,0.665,0.322c0.196,0.14,0.355,0.332,0.476,0.574c0.037,0.065,0.07,0.154,0.098,0.266
		c0.028,0.112,0.051,0.278,0.07,0.497c0.019,0.22,0.033,0.509,0.042,0.868s0.014,0.819,0.014,1.379c0,0.159,0,0.35,0,0.574
		c0,0.224,0.004,0.448,0.014,0.672c0.009,0.224,0.019,0.439,0.028,0.644s0.028,0.364,0.056,0.476
		c0.056,0.289,0.168,0.611,0.336,0.966h-1.89c-0.047-0.112-0.107-0.303-0.182-0.574c-0.019-0.056-0.033-0.103-0.042-0.14
		s-0.019-0.065-0.028-0.084c-0.653,0.644-1.405,0.966-2.254,0.966c-0.747,0-1.335-0.205-1.764-0.616
		c-0.429-0.401-0.644-0.915-0.644-1.54c0-0.411,0.096-0.777,0.287-1.099c0.191-0.322,0.464-0.562,0.819-0.721
		c0.187-0.093,0.406-0.175,0.658-0.245c0.252-0.07,0.546-0.142,0.882-0.217c0.887-0.168,1.507-0.322,1.862-0.462V7.084
		c0-0.42-0.107-0.695-0.322-0.826s-0.542-0.196-0.98-0.196c-0.345,0-0.614,0.065-0.805,0.196s-0.348,0.369-0.469,0.714L43.26,6.65z
		 M47.088,8.666c-0.191,0.047-0.422,0.098-0.693,0.154C46.2,8.857,46.018,8.899,45.85,8.946s-0.317,0.105-0.448,0.175
		c-0.131,0.07-0.233,0.161-0.308,0.273c-0.075,0.112-0.112,0.257-0.112,0.434c0,0.299,0.105,0.539,0.315,0.721
		s0.46,0.273,0.749,0.273c0.29,0,0.532-0.049,0.728-0.147c0.196-0.098,0.353-0.236,0.469-0.413s0.201-0.383,0.252-0.616
		c0.051-0.233,0.077-0.48,0.077-0.742V8.526C47.441,8.573,47.28,8.62,47.088,8.666z"/>
	<path d="M51.016,1.988h1.918v10.024h-1.918V1.988z"/>
	<path d="M59.724,8.554c0.121,0.672,0.361,1.162,0.721,1.47c0.359,0.308,0.847,0.462,1.463,0.462c0.243,0,0.48-0.026,0.714-0.077
		s0.443-0.133,0.63-0.245c0.187-0.112,0.338-0.256,0.455-0.434c0.117-0.177,0.175-0.387,0.175-0.63c0-0.243-0.07-0.445-0.21-0.609
		c-0.14-0.163-0.383-0.306-0.728-0.427c-0.336-0.112-0.688-0.217-1.057-0.315c-0.369-0.098-0.73-0.2-1.085-0.308
		c-0.355-0.107-0.696-0.233-1.022-0.378c-0.327-0.145-0.614-0.324-0.861-0.539c-0.247-0.215-0.443-0.476-0.588-0.784
		c-0.145-0.308-0.217-0.681-0.217-1.12c0-0.504,0.107-0.933,0.322-1.288c0.215-0.354,0.495-0.644,0.84-0.868
		c0.345-0.224,0.735-0.387,1.169-0.49c0.434-0.103,0.875-0.154,1.323-0.154c0.551,0,1.055,0.058,1.512,0.175
		c0.457,0.117,0.852,0.296,1.183,0.539c0.332,0.243,0.597,0.558,0.798,0.945c0.201,0.388,0.319,0.847,0.357,1.379l-2.03,0.084
		c-0.084-0.523-0.268-0.894-0.553-1.113C62.75,3.61,62.323,3.5,61.753,3.5c-0.187,0-0.38,0.014-0.581,0.042
		c-0.201,0.028-0.385,0.077-0.553,0.147c-0.168,0.07-0.306,0.17-0.413,0.301s-0.161,0.294-0.161,0.49
		c0,0.262,0.084,0.476,0.252,0.644c0.168,0.168,0.39,0.313,0.665,0.434C61.238,5.68,61.551,5.787,61.9,5.88
		c0.35,0.093,0.707,0.196,1.071,0.308c0.364,0.112,0.721,0.241,1.071,0.385c0.35,0.145,0.663,0.327,0.938,0.546
		s0.497,0.49,0.665,0.812c0.168,0.322,0.252,0.712,0.252,1.169c0,0.56-0.114,1.036-0.343,1.428c-0.229,0.392-0.53,0.712-0.903,0.959
		c-0.373,0.247-0.8,0.427-1.281,0.539c-0.481,0.112-0.973,0.168-1.477,0.168c-1.279,0-2.256-0.292-2.933-0.875
		s-1.08-1.44-1.211-2.569L59.724,8.554z"/>
	<path d="M71.679,7.238c-0.14-0.756-0.579-1.134-1.316-1.134c-0.308,0-0.562,0.054-0.763,0.161
		c-0.201,0.107-0.359,0.257-0.476,0.448c-0.117,0.191-0.201,0.417-0.252,0.679c-0.052,0.262-0.077,0.546-0.077,0.854
		c0,0.327,0.021,0.635,0.063,0.924c0.042,0.289,0.124,0.541,0.245,0.756c0.121,0.215,0.285,0.383,0.49,0.504
		c0.205,0.122,0.471,0.182,0.798,0.182c0.364,0,0.66-0.103,0.889-0.308c0.229-0.205,0.395-0.564,0.497-1.078l1.89,0.322
		c-0.392,1.755-1.512,2.632-3.36,2.632c-0.56,0-1.057-0.093-1.491-0.28c-0.434-0.187-0.798-0.446-1.092-0.777
		c-0.294-0.331-0.518-0.73-0.672-1.197c-0.154-0.467-0.231-0.98-0.231-1.54s0.077-1.073,0.231-1.54
		c0.154-0.467,0.38-0.868,0.679-1.204c0.298-0.336,0.665-0.595,1.099-0.777c0.434-0.182,0.936-0.273,1.505-0.273
		c0.887,0,1.589,0.187,2.107,0.56c0.518,0.373,0.894,0.957,1.127,1.75L71.679,7.238z"/>
	<path d="M74.703,1.988h1.918v1.778h-1.918V1.988z M74.703,4.746h1.918v7.266h-1.918V4.746z"/>
	<path d="M84.265,10.024c-0.243,0.7-0.63,1.234-1.162,1.603c-0.532,0.369-1.199,0.553-2.002,0.553c-0.579,0-1.087-0.091-1.526-0.273
		c-0.439-0.182-0.805-0.438-1.099-0.77c-0.294-0.331-0.516-0.726-0.665-1.183c-0.149-0.457-0.224-0.961-0.224-1.512
		c0-0.532,0.072-1.034,0.217-1.505c0.145-0.471,0.357-0.879,0.637-1.225c0.28-0.345,0.627-0.618,1.043-0.819
		c0.416-0.201,0.894-0.301,1.435-0.301c0.606,0,1.127,0.105,1.561,0.315s0.791,0.504,1.071,0.882
		c0.28,0.378,0.485,0.833,0.616,1.365c0.13,0.532,0.196,1.125,0.196,1.778h-4.816c0,0.252,0.037,0.488,0.112,0.707
		c0.074,0.219,0.179,0.411,0.315,0.574c0.135,0.163,0.301,0.292,0.497,0.385c0.196,0.093,0.415,0.14,0.658,0.14
		c0.299,0,0.551-0.082,0.756-0.245c0.206-0.163,0.359-0.427,0.462-0.791L84.265,10.024z M82.459,7.714
		c0-0.467-0.126-0.859-0.378-1.176c-0.252-0.317-0.602-0.476-1.05-0.476c-0.448,0-0.8,0.157-1.057,0.469
		c-0.257,0.313-0.385,0.721-0.385,1.225h2.87V7.714z"/>
	<path d="M90.159,12.012v-3.71c0-0.784-0.042-1.288-0.126-1.512c-0.075-0.242-0.21-0.424-0.406-0.546
		c-0.196-0.121-0.415-0.182-0.658-0.182c-0.383,0-0.682,0.075-0.896,0.224c-0.215,0.149-0.374,0.348-0.476,0.595
		c-0.103,0.247-0.164,0.532-0.182,0.854c-0.019,0.322-0.028,0.651-0.028,0.987v3.29h-1.918V4.746h1.778v1.078
		c0.644-0.821,1.442-1.232,2.394-1.232c0.495,0,0.898,0.075,1.211,0.224s0.56,0.354,0.742,0.616
		c0.182,0.262,0.308,0.569,0.378,0.924c0.07,0.354,0.105,0.737,0.105,1.148v4.508H90.159z"/>
	<path d="M97.915,7.238c-0.14-0.756-0.579-1.134-1.316-1.134c-0.308,0-0.562,0.054-0.763,0.161
		c-0.201,0.107-0.359,0.257-0.476,0.448c-0.117,0.191-0.201,0.417-0.252,0.679c-0.052,0.262-0.077,0.546-0.077,0.854
		c0,0.327,0.021,0.635,0.063,0.924c0.042,0.289,0.124,0.541,0.245,0.756c0.121,0.215,0.285,0.383,0.49,0.504
		c0.205,0.122,0.471,0.182,0.798,0.182c0.364,0,0.66-0.103,0.889-0.308c0.229-0.205,0.395-0.564,0.497-1.078l1.89,0.322
		c-0.392,1.755-1.512,2.632-3.36,2.632c-0.56,0-1.057-0.093-1.491-0.28c-0.434-0.187-0.798-0.446-1.092-0.777
		c-0.294-0.331-0.518-0.73-0.672-1.197c-0.154-0.467-0.231-0.98-0.231-1.54s0.077-1.073,0.231-1.54
		c0.154-0.467,0.38-0.868,0.679-1.204c0.298-0.336,0.665-0.595,1.099-0.777c0.434-0.182,0.936-0.273,1.505-0.273
		c0.887,0,1.589,0.187,2.107,0.56c0.518,0.373,0.894,0.957,1.127,1.75L97.915,7.238z"/>
	<path d="M107.435,10.024c-0.243,0.7-0.63,1.234-1.162,1.603c-0.532,0.369-1.199,0.553-2.002,0.553
		c-0.579,0-1.087-0.091-1.526-0.273c-0.439-0.182-0.805-0.438-1.099-0.77c-0.294-0.331-0.516-0.726-0.665-1.183
		c-0.149-0.457-0.224-0.961-0.224-1.512c0-0.532,0.072-1.034,0.217-1.505c0.145-0.471,0.357-0.879,0.637-1.225
		c0.28-0.345,0.627-0.618,1.043-0.819c0.416-0.201,0.894-0.301,1.435-0.301c0.606,0,1.127,0.105,1.561,0.315
		s0.791,0.504,1.071,0.882c0.28,0.378,0.485,0.833,0.616,1.365c0.13,0.532,0.196,1.125,0.196,1.778h-4.816
		c0,0.252,0.037,0.488,0.112,0.707c0.074,0.219,0.179,0.411,0.315,0.574c0.135,0.163,0.301,0.292,0.497,0.385
		c0.196,0.093,0.415,0.14,0.658,0.14c0.299,0,0.551-0.082,0.756-0.245c0.206-0.163,0.359-0.427,0.462-0.791L107.435,10.024z
		 M105.628,7.714c0-0.467-0.126-0.859-0.378-1.176c-0.252-0.317-0.602-0.476-1.05-0.476c-0.448,0-0.8,0.157-1.057,0.469
		c-0.257,0.313-0.385,0.721-0.385,1.225h2.87V7.714z"/>
	<path d="M112.53,1.988h4.256c0.532,0,1.038,0.035,1.519,0.105c0.48,0.07,0.901,0.206,1.26,0.406
		c0.359,0.201,0.644,0.485,0.854,0.854c0.21,0.369,0.315,0.852,0.315,1.449c0,0.756-0.222,1.377-0.665,1.862
		c-0.443,0.485-1.104,0.793-1.981,0.924c0.448,0.261,0.807,0.541,1.078,0.84c0.075,0.075,0.159,0.175,0.252,0.301
		c0.093,0.126,0.226,0.32,0.399,0.581c0.172,0.262,0.396,0.607,0.672,1.036s0.627,0.985,1.057,1.666h-2.422
		c-0.495-0.737-0.896-1.334-1.204-1.792c-0.308-0.457-0.553-0.814-0.735-1.071c-0.182-0.257-0.315-0.441-0.399-0.553
		s-0.149-0.191-0.196-0.238c-0.122-0.131-0.236-0.231-0.343-0.301c-0.107-0.07-0.224-0.121-0.35-0.154
		c-0.126-0.033-0.264-0.054-0.413-0.063c-0.149-0.009-0.322-0.014-0.518-0.014h-0.406v4.186h-2.03V1.988z M116.058,6.23
		c0.98,0,1.587-0.042,1.82-0.126c0.261-0.093,0.455-0.242,0.581-0.448c0.126-0.205,0.189-0.448,0.189-0.728
		c0-0.336-0.091-0.606-0.273-0.812c-0.182-0.205-0.436-0.336-0.763-0.392c-0.168-0.028-0.658-0.042-1.47-0.042h-1.582V6.23H116.058z
		"/>
	<path d="M129.12,10.024c-0.243,0.7-0.63,1.234-1.162,1.603c-0.532,0.369-1.199,0.553-2.002,0.553c-0.579,0-1.087-0.091-1.526-0.273
		c-0.439-0.182-0.805-0.438-1.099-0.77c-0.294-0.331-0.516-0.726-0.665-1.183c-0.149-0.457-0.224-0.961-0.224-1.512
		c0-0.532,0.072-1.034,0.217-1.505c0.145-0.471,0.357-0.879,0.637-1.225c0.28-0.345,0.627-0.618,1.043-0.819
		c0.416-0.201,0.894-0.301,1.435-0.301c0.606,0,1.127,0.105,1.561,0.315s0.791,0.504,1.071,0.882
		c0.28,0.378,0.485,0.833,0.616,1.365c0.13,0.532,0.196,1.125,0.196,1.778h-4.816c0,0.252,0.037,0.488,0.112,0.707
		c0.074,0.219,0.179,0.411,0.315,0.574c0.135,0.163,0.301,0.292,0.497,0.385c0.196,0.093,0.415,0.14,0.658,0.14
		c0.299,0,0.551-0.082,0.756-0.245c0.206-0.163,0.359-0.427,0.462-0.791L129.12,10.024z M127.314,7.714
		c0-0.467-0.126-0.859-0.378-1.176c-0.252-0.317-0.602-0.476-1.05-0.476c-0.448,0-0.8,0.157-1.057,0.469
		c-0.257,0.313-0.385,0.721-0.385,1.225h2.87V7.714z"/>
	<path d="M131.01,4.746V4.2c0-0.298,0.014-0.562,0.042-0.791c0.028-0.229,0.079-0.417,0.154-0.567
		c0.121-0.299,0.359-0.546,0.714-0.742c0.354-0.187,0.798-0.28,1.33-0.28c0.551,0,1.083,0.084,1.596,0.252l-0.252,1.33
		c-0.327-0.075-0.621-0.112-0.882-0.112c-0.28,0-0.481,0.065-0.602,0.196c-0.122,0.131-0.182,0.383-0.182,0.756v0.504h1.442v1.512
		h-1.442v5.754h-1.918V6.258h-1.064V4.746H131.01z"/>
	<path d="M142.21,10.024c-0.243,0.7-0.63,1.234-1.162,1.603c-0.532,0.369-1.199,0.553-2.002,0.553c-0.579,0-1.087-0.091-1.526-0.273
		c-0.439-0.182-0.805-0.438-1.099-0.77c-0.294-0.331-0.516-0.726-0.665-1.183c-0.149-0.457-0.224-0.961-0.224-1.512
		c0-0.532,0.072-1.034,0.217-1.505c0.145-0.471,0.357-0.879,0.637-1.225c0.28-0.345,0.627-0.618,1.043-0.819
		c0.416-0.201,0.894-0.301,1.435-0.301c0.606,0,1.127,0.105,1.561,0.315s0.791,0.504,1.071,0.882
		c0.28,0.378,0.485,0.833,0.616,1.365c0.13,0.532,0.196,1.125,0.196,1.778h-4.816c0,0.252,0.037,0.488,0.112,0.707
		c0.074,0.219,0.179,0.411,0.315,0.574c0.135,0.163,0.301,0.292,0.497,0.385c0.196,0.093,0.415,0.14,0.658,0.14
		c0.299,0,0.551-0.082,0.756-0.245c0.206-0.163,0.359-0.427,0.462-0.791L142.21,10.024z M140.404,7.714
		c0-0.467-0.126-0.859-0.378-1.176c-0.252-0.317-0.602-0.476-1.05-0.476c-0.448,0-0.8,0.157-1.057,0.469
		c-0.257,0.313-0.385,0.721-0.385,1.225h2.87V7.714z"/>
	<path d="M143.414,12.012V4.746h1.778v1.036c0.308-0.467,0.583-0.789,0.826-0.966c0.243-0.149,0.522-0.224,0.84-0.224
		c0.429,0,0.849,0.121,1.26,0.364l-0.602,1.666c-0.317-0.205-0.616-0.308-0.896-0.308c-0.29,0-0.521,0.08-0.693,0.238
		c-0.173,0.159-0.304,0.399-0.392,0.721c-0.089,0.322-0.145,0.723-0.168,1.204c-0.023,0.481-0.035,1.043-0.035,1.687v1.848H143.414z
		"/>
	<path d="M155.383,10.024c-0.243,0.7-0.63,1.234-1.162,1.603c-0.532,0.369-1.199,0.553-2.002,0.553
		c-0.579,0-1.087-0.091-1.526-0.273c-0.439-0.182-0.805-0.438-1.099-0.77c-0.294-0.331-0.516-0.726-0.665-1.183
		c-0.149-0.457-0.224-0.961-0.224-1.512c0-0.532,0.072-1.034,0.217-1.505c0.145-0.471,0.357-0.879,0.637-1.225
		c0.28-0.345,0.627-0.618,1.043-0.819c0.416-0.201,0.894-0.301,1.435-0.301c0.606,0,1.127,0.105,1.561,0.315
		s0.791,0.504,1.071,0.882c0.28,0.378,0.485,0.833,0.616,1.365c0.13,0.532,0.196,1.125,0.196,1.778h-4.816
		c0,0.252,0.037,0.488,0.112,0.707c0.074,0.219,0.179,0.411,0.315,0.574c0.135,0.163,0.301,0.292,0.497,0.385
		c0.196,0.093,0.415,0.14,0.658,0.14c0.299,0,0.551-0.082,0.756-0.245c0.206-0.163,0.359-0.427,0.462-0.791L155.383,10.024z
		 M153.577,7.714c0-0.467-0.126-0.859-0.378-1.176c-0.252-0.317-0.602-0.476-1.05-0.476c-0.448,0-0.8,0.157-1.057,0.469
		c-0.257,0.313-0.385,0.721-0.385,1.225h2.87V7.714z"/>
	<path d="M161.277,12.012v-3.71c0-0.784-0.042-1.288-0.126-1.512c-0.075-0.242-0.21-0.424-0.406-0.546
		c-0.196-0.121-0.415-0.182-0.658-0.182c-0.383,0-0.682,0.075-0.896,0.224c-0.215,0.149-0.374,0.348-0.476,0.595
		c-0.103,0.247-0.164,0.532-0.182,0.854c-0.019,0.322-0.028,0.651-0.028,0.987v3.29h-1.918V4.746h1.778v1.078
		c0.644-0.821,1.442-1.232,2.394-1.232c0.495,0,0.898,0.075,1.211,0.224s0.56,0.354,0.742,0.616
		c0.182,0.262,0.308,0.569,0.378,0.924c0.07,0.354,0.105,0.737,0.105,1.148v4.508H161.277z"/>
	<path d="M169.033,7.238c-0.14-0.756-0.579-1.134-1.316-1.134c-0.308,0-0.562,0.054-0.763,0.161
		c-0.201,0.107-0.359,0.257-0.476,0.448c-0.117,0.191-0.201,0.417-0.252,0.679c-0.052,0.262-0.077,0.546-0.077,0.854
		c0,0.327,0.021,0.635,0.063,0.924c0.042,0.289,0.124,0.541,0.245,0.756c0.121,0.215,0.285,0.383,0.49,0.504
		c0.205,0.122,0.471,0.182,0.798,0.182c0.364,0,0.66-0.103,0.889-0.308c0.229-0.205,0.395-0.564,0.497-1.078l1.89,0.322
		c-0.392,1.755-1.512,2.632-3.36,2.632c-0.56,0-1.057-0.093-1.491-0.28c-0.434-0.187-0.798-0.446-1.092-0.777
		c-0.294-0.331-0.518-0.73-0.672-1.197c-0.154-0.467-0.231-0.98-0.231-1.54s0.077-1.073,0.231-1.54
		c0.154-0.467,0.38-0.868,0.679-1.204c0.298-0.336,0.665-0.595,1.099-0.777c0.434-0.182,0.936-0.273,1.505-0.273
		c0.887,0,1.589,0.187,2.107,0.56c0.518,0.373,0.894,0.957,1.127,1.75L169.033,7.238z"/>
	<path d="M178.553,10.024c-0.243,0.7-0.63,1.234-1.162,1.603c-0.532,0.369-1.199,0.553-2.002,0.553
		c-0.579,0-1.087-0.091-1.526-0.273c-0.439-0.182-0.805-0.438-1.099-0.77c-0.294-0.331-0.516-0.726-0.665-1.183
		c-0.149-0.457-0.224-0.961-0.224-1.512c0-0.532,0.072-1.034,0.217-1.505c0.145-0.471,0.357-0.879,0.637-1.225
		c0.28-0.345,0.627-0.618,1.043-0.819c0.416-0.201,0.894-0.301,1.435-0.301c0.606,0,1.127,0.105,1.561,0.315
		s0.791,0.504,1.071,0.882c0.28,0.378,0.485,0.833,0.616,1.365c0.13,0.532,0.196,1.125,0.196,1.778h-4.816
		c0,0.252,0.037,0.488,0.112,0.707c0.074,0.219,0.179,0.411,0.315,0.574c0.135,0.163,0.301,0.292,0.497,0.385
		c0.196,0.093,0.415,0.14,0.658,0.14c0.299,0,0.551-0.082,0.756-0.245c0.206-0.163,0.359-0.427,0.462-0.791L178.553,10.024z
		 M176.747,7.714c0-0.467-0.126-0.859-0.378-1.176c-0.252-0.317-0.602-0.476-1.05-0.476c-0.448,0-0.8,0.157-1.057,0.469
		c-0.257,0.313-0.385,0.721-0.385,1.225h2.87V7.714z"/>
	<path d="M185.398,8.554c0.121,0.672,0.361,1.162,0.721,1.47c0.359,0.308,0.847,0.462,1.463,0.462c0.243,0,0.48-0.026,0.714-0.077
		s0.443-0.133,0.63-0.245c0.187-0.112,0.338-0.256,0.455-0.434c0.117-0.177,0.175-0.387,0.175-0.63c0-0.243-0.07-0.445-0.21-0.609
		c-0.14-0.163-0.383-0.306-0.728-0.427c-0.336-0.112-0.688-0.217-1.057-0.315c-0.369-0.098-0.73-0.2-1.085-0.308
		c-0.355-0.107-0.696-0.233-1.022-0.378c-0.327-0.145-0.614-0.324-0.861-0.539c-0.247-0.215-0.443-0.476-0.588-0.784
		c-0.145-0.308-0.217-0.681-0.217-1.12c0-0.504,0.107-0.933,0.322-1.288c0.215-0.354,0.495-0.644,0.84-0.868
		c0.345-0.224,0.735-0.387,1.169-0.49c0.434-0.103,0.875-0.154,1.323-0.154c0.551,0,1.055,0.058,1.512,0.175
		c0.457,0.117,0.852,0.296,1.183,0.539c0.332,0.243,0.597,0.558,0.798,0.945c0.201,0.388,0.319,0.847,0.357,1.379l-2.03,0.084
		c-0.084-0.523-0.268-0.894-0.553-1.113c-0.285-0.219-0.712-0.329-1.281-0.329c-0.187,0-0.38,0.014-0.581,0.042
		c-0.201,0.028-0.385,0.077-0.553,0.147c-0.168,0.07-0.306,0.17-0.413,0.301s-0.161,0.294-0.161,0.49
		c0,0.262,0.084,0.476,0.252,0.644c0.168,0.168,0.39,0.313,0.665,0.434c0.275,0.122,0.588,0.229,0.938,0.322
		c0.35,0.093,0.707,0.196,1.071,0.308c0.364,0.112,0.721,0.241,1.071,0.385c0.35,0.145,0.663,0.327,0.938,0.546
		s0.497,0.49,0.665,0.812c0.168,0.322,0.252,0.712,0.252,1.169c0,0.56-0.114,1.036-0.343,1.428c-0.229,0.392-0.53,0.712-0.903,0.959
		c-0.373,0.247-0.8,0.427-1.281,0.539c-0.481,0.112-0.973,0.168-1.477,0.168c-1.279,0-2.256-0.292-2.933-0.875
		s-1.08-1.44-1.211-2.569L185.398,8.554z"/>
	<path d="M194.596,5.67c0.635-0.719,1.376-1.078,2.226-1.078c0.504,0,0.915,0.082,1.232,0.245c0.317,0.163,0.567,0.387,0.749,0.672
		s0.308,0.621,0.378,1.008c0.07,0.388,0.105,0.8,0.105,1.239v4.256h-1.918V8.176c0-0.327-0.007-0.621-0.021-0.882
		s-0.059-0.483-0.133-0.665c-0.075-0.182-0.191-0.322-0.35-0.42c-0.159-0.098-0.388-0.147-0.686-0.147
		c-0.327,0-0.593,0.065-0.798,0.196c-0.206,0.131-0.367,0.303-0.483,0.518s-0.196,0.459-0.238,0.735s-0.063,0.562-0.063,0.861v3.64
		h-1.918V1.988h1.918V5.67z"/>
	<path d="M206.678,10.024c-0.243,0.7-0.63,1.234-1.162,1.603c-0.532,0.369-1.199,0.553-2.002,0.553
		c-0.579,0-1.087-0.091-1.526-0.273c-0.439-0.182-0.805-0.438-1.099-0.77c-0.294-0.331-0.516-0.726-0.665-1.183
		C200.075,9.497,200,8.993,200,8.442c0-0.532,0.072-1.034,0.217-1.505c0.145-0.471,0.357-0.879,0.637-1.225
		c0.28-0.345,0.627-0.618,1.043-0.819c0.416-0.201,0.894-0.301,1.435-0.301c0.606,0,1.127,0.105,1.561,0.315
		s0.791,0.504,1.071,0.882c0.28,0.378,0.485,0.833,0.616,1.365c0.13,0.532,0.196,1.125,0.196,1.778h-4.816
		c0,0.252,0.037,0.488,0.112,0.707c0.074,0.219,0.179,0.411,0.315,0.574c0.135,0.163,0.301,0.292,0.497,0.385
		c0.196,0.093,0.415,0.14,0.658,0.14c0.299,0,0.551-0.082,0.756-0.245c0.206-0.163,0.359-0.427,0.462-0.791L206.678,10.024z
		 M204.872,7.714c0-0.467-0.126-0.859-0.378-1.176c-0.252-0.317-0.602-0.476-1.05-0.476c-0.448,0-0.8,0.157-1.057,0.469
		c-0.257,0.313-0.385,0.721-0.385,1.225h2.87V7.714z"/>
	<path d="M214.378,10.024c-0.243,0.7-0.63,1.234-1.162,1.603c-0.532,0.369-1.199,0.553-2.002,0.553
		c-0.579,0-1.087-0.091-1.526-0.273c-0.439-0.182-0.805-0.438-1.099-0.77c-0.294-0.331-0.516-0.726-0.665-1.183
		c-0.149-0.457-0.224-0.961-0.224-1.512c0-0.532,0.072-1.034,0.217-1.505c0.145-0.471,0.357-0.879,0.637-1.225
		c0.28-0.345,0.627-0.618,1.043-0.819c0.416-0.201,0.894-0.301,1.435-0.301c0.606,0,1.127,0.105,1.561,0.315
		s0.791,0.504,1.071,0.882c0.28,0.378,0.485,0.833,0.616,1.365c0.13,0.532,0.196,1.125,0.196,1.778h-4.816
		c0,0.252,0.037,0.488,0.112,0.707c0.074,0.219,0.179,0.411,0.315,0.574c0.135,0.163,0.301,0.292,0.497,0.385
		c0.196,0.093,0.415,0.14,0.658,0.14c0.299,0,0.551-0.082,0.756-0.245c0.206-0.163,0.359-0.427,0.462-0.791L214.378,10.024z
		 M212.572,7.714c0-0.467-0.126-0.859-0.378-1.176c-0.252-0.317-0.602-0.476-1.05-0.476c-0.448,0-0.8,0.157-1.057,0.469
		c-0.257,0.313-0.385,0.721-0.385,1.225h2.87V7.714z"/>
	<path d="M219.334,6.286h-1.316v2.926c0,0.299,0.002,0.534,0.007,0.707c0.005,0.172,0.012,0.282,0.021,0.329
		c0.027,0.112,0.091,0.196,0.188,0.252c0.098,0.056,0.203,0.084,0.315,0.084c0.187,0,0.443-0.061,0.77-0.182l0.168,1.484
		c-0.448,0.196-0.957,0.294-1.525,0.294c-1.073,0-1.676-0.457-1.807-1.372c-0.019-0.121-0.035-0.294-0.049-0.518
		c-0.014-0.224-0.021-0.504-0.021-0.84V6.286h-0.882v-1.54h0.882V3.304l1.932-1.12v2.562h1.316V6.286z"/>
</g>
<g>
</g>
<g>
</g>
<g>
</g>
<g>
</g>
<g>
</g>
<g>
</g>
</svg>
