<?xml version="1.0" encoding="utf-8"?>
<!-- Generator: Adobe Illustrator 16.0.0, SVG Export Plug-In . SVG Version: 6.00 Build 0)  -->
<!DOCTYPE svg PUBLIC "-//W3C//DTD SVG 1.1//EN" "http://www.w3.org/Graphics/SVG/1.1/DTD/svg11.dtd">
<svg version="1.1" id="Layer_1" xmlns="http://www.w3.org/2000/svg" xmlns:xlink="http://www.w3.org/1999/xlink" x="0px" y="0px"
	 width="218.131px" height="18.606px" viewBox="0 0 218.131 18.606" enable-background="new 0 0 218.131 18.606"
	 xml:space="preserve">
<g>
	<path d="M8.134,12.012L7.266,9.73H3.248l-0.826,2.282H0.28L4.186,1.988h2.142l4.004,10.024H8.134z M5.236,4.326L3.878,8.05h2.73
		L5.236,4.326z"/>
	<path d="M15.946,12.012v-3.71c0-0.784-0.042-1.288-0.126-1.512c-0.075-0.242-0.21-0.424-0.406-0.546
		c-0.196-0.121-0.415-0.182-0.658-0.182c-0.383,0-0.682,0.075-0.896,0.224c-0.215,0.149-0.374,0.348-0.476,0.595
		c-0.103,0.247-0.164,0.532-0.182,0.854c-0.019,0.322-0.028,0.651-0.028,0.987v3.29h-1.918V4.746h1.778v1.078
		c0.644-0.821,1.442-1.232,2.394-1.232c0.495,0,0.898,0.075,1.211,0.224s0.56,0.354,0.742,0.616
		c0.182,0.262,0.308,0.569,0.378,0.924c0.07,0.354,0.105,0.737,0.105,1.148v4.508H15.946z"/>
	<path d="M19.04,6.65c0.121-0.392,0.273-0.719,0.455-0.98c0.182-0.261,0.399-0.474,0.651-0.637c0.252-0.163,0.546-0.278,0.882-0.343
		c0.336-0.065,0.719-0.098,1.148-0.098c0.308,0,0.602,0.012,0.882,0.035c0.28,0.023,0.544,0.072,0.791,0.147
		c0.248,0.075,0.469,0.182,0.665,0.322c0.196,0.14,0.355,0.332,0.476,0.574c0.037,0.065,0.07,0.154,0.098,0.266
		c0.028,0.112,0.051,0.278,0.07,0.497c0.019,0.22,0.033,0.509,0.042,0.868s0.014,0.819,0.014,1.379c0,0.159,0,0.35,0,0.574
		c0,0.224,0.004,0.448,0.014,0.672c0.009,0.224,0.019,0.439,0.028,0.644s0.028,0.364,0.056,0.476
		c0.056,0.289,0.168,0.611,0.336,0.966h-1.89c-0.047-0.112-0.107-0.303-0.182-0.574c-0.019-0.056-0.033-0.103-0.042-0.14
		s-0.019-0.065-0.028-0.084c-0.653,0.644-1.405,0.966-2.254,0.966c-0.747,0-1.335-0.205-1.764-0.616
		c-0.429-0.401-0.644-0.915-0.644-1.54c0-0.411,0.096-0.777,0.287-1.099c0.191-0.322,0.464-0.562,0.819-0.721
		c0.187-0.093,0.406-0.175,0.658-0.245c0.252-0.07,0.546-0.142,0.882-0.217c0.887-0.168,1.507-0.322,1.862-0.462V7.084
		c0-0.42-0.107-0.695-0.322-0.826s-0.542-0.196-0.98-0.196c-0.345,0-0.614,0.065-0.805,0.196s-0.348,0.369-0.469,0.714L19.04,6.65z
		 M22.869,8.666c-0.191,0.047-0.422,0.098-0.693,0.154c-0.196,0.037-0.378,0.079-0.546,0.126s-0.317,0.105-0.448,0.175
		c-0.131,0.07-0.233,0.161-0.308,0.273c-0.075,0.112-0.112,0.257-0.112,0.434c0,0.299,0.105,0.539,0.315,0.721
		s0.46,0.273,0.749,0.273c0.29,0,0.532-0.049,0.728-0.147c0.196-0.098,0.353-0.236,0.469-0.413s0.201-0.383,0.252-0.616
		c0.051-0.233,0.077-0.48,0.077-0.742V8.526C23.221,8.573,23.06,8.62,22.869,8.666z"/>
	<path d="M26.796,1.988h1.918v10.024h-1.918V1.988z"/>
	<path d="M31.78,4.746l1.736,5.166l1.694-5.166h1.988l-2.562,6.986c-0.159,0.42-0.29,0.763-0.392,1.029s-0.189,0.48-0.259,0.644
		c-0.07,0.163-0.126,0.285-0.168,0.364c-0.042,0.08-0.082,0.147-0.119,0.203c-0.252,0.373-0.555,0.63-0.91,0.77
		c-0.354,0.14-0.798,0.21-1.33,0.21c-0.187,0-0.369-0.007-0.546-0.021s-0.359-0.044-0.546-0.091l-0.168-1.498
		c0.308,0.056,0.579,0.084,0.812,0.084s0.429-0.035,0.588-0.105c0.159-0.07,0.294-0.168,0.406-0.294
		c0.112-0.126,0.205-0.275,0.28-0.448s0.145-0.357,0.21-0.553l-2.758-7.28H31.78z"/>
	<path d="M41.79,6.286h-1.316v2.926c0,0.299,0.002,0.534,0.007,0.707c0.005,0.172,0.012,0.282,0.021,0.329
		c0.028,0.112,0.091,0.196,0.189,0.252c0.098,0.056,0.203,0.084,0.315,0.084c0.187,0,0.443-0.061,0.77-0.182l0.168,1.484
		c-0.448,0.196-0.957,0.294-1.526,0.294c-1.073,0-1.675-0.457-1.806-1.372c-0.019-0.121-0.035-0.294-0.049-0.518
		c-0.014-0.224-0.021-0.504-0.021-0.84V6.286H37.66v-1.54h0.882V3.304l1.932-1.12v2.562h1.316V6.286z"/>
	<path d="M42.938,1.988h1.918v1.778h-1.918V1.988z M42.938,4.746h1.918v7.266h-1.918V4.746z"/>
	<path d="M50.679,7.238c-0.14-0.756-0.579-1.134-1.316-1.134c-0.308,0-0.562,0.054-0.763,0.161
		c-0.201,0.107-0.359,0.257-0.476,0.448c-0.117,0.191-0.201,0.417-0.252,0.679c-0.052,0.262-0.077,0.546-0.077,0.854
		c0,0.327,0.021,0.635,0.063,0.924c0.042,0.289,0.124,0.541,0.245,0.756c0.121,0.215,0.285,0.383,0.49,0.504
		c0.205,0.122,0.471,0.182,0.798,0.182c0.364,0,0.66-0.103,0.889-0.308c0.229-0.205,0.395-0.564,0.497-1.078l1.89,0.322
		c-0.392,1.755-1.512,2.632-3.36,2.632c-0.56,0-1.057-0.093-1.491-0.28c-0.434-0.187-0.798-0.446-1.092-0.777
		c-0.294-0.331-0.518-0.73-0.672-1.197c-0.154-0.467-0.231-0.98-0.231-1.54s0.077-1.073,0.231-1.54
		c0.154-0.467,0.38-0.868,0.679-1.204c0.298-0.336,0.665-0.595,1.099-0.777c0.434-0.182,0.936-0.273,1.505-0.273
		c0.887,0,1.589,0.187,2.107,0.56c0.518,0.373,0.894,0.957,1.127,1.75L50.679,7.238z"/>
	<path d="M62.411,6.72h4.354v3.906c-0.233,0.233-0.523,0.448-0.868,0.644c-0.345,0.196-0.714,0.359-1.106,0.49
		c-0.392,0.131-0.786,0.233-1.183,0.308c-0.397,0.074-0.772,0.112-1.127,0.112c-0.774,0-1.475-0.128-2.1-0.385
		c-0.625-0.257-1.16-0.616-1.603-1.078c-0.443-0.462-0.784-1.01-1.022-1.645c-0.238-0.635-0.357-1.334-0.357-2.1
		c0-0.747,0.116-1.435,0.35-2.065s0.565-1.174,0.994-1.631c0.429-0.458,0.95-0.814,1.561-1.071c0.611-0.256,1.3-0.385,2.065-0.385
		c1.12,0,2.046,0.229,2.779,0.686c0.733,0.457,1.23,1.208,1.491,2.254l-2.016,0.378c-0.14-0.495-0.404-0.882-0.791-1.162
		c-0.387-0.28-0.875-0.42-1.463-0.42c-0.495,0-0.922,0.082-1.281,0.245c-0.359,0.164-0.658,0.392-0.896,0.686
		c-0.238,0.294-0.416,0.644-0.532,1.05c-0.117,0.406-0.175,0.856-0.175,1.351c0,0.504,0.053,0.973,0.161,1.407
		c0.107,0.434,0.278,0.812,0.511,1.134c0.233,0.322,0.532,0.574,0.896,0.756c0.364,0.182,0.798,0.273,1.302,0.273
		c0.392,0,0.808-0.082,1.246-0.245c0.438-0.164,0.812-0.366,1.12-0.609v-1.19h-2.31V6.72z"/>
	<path d="M74.367,10.024c-0.243,0.7-0.63,1.234-1.162,1.603c-0.532,0.369-1.199,0.553-2.002,0.553c-0.579,0-1.087-0.091-1.526-0.273
		c-0.439-0.182-0.805-0.438-1.099-0.77c-0.294-0.331-0.516-0.726-0.665-1.183c-0.149-0.457-0.224-0.961-0.224-1.512
		c0-0.532,0.072-1.034,0.217-1.505c0.145-0.471,0.357-0.879,0.637-1.225c0.28-0.345,0.627-0.618,1.043-0.819
		c0.416-0.201,0.894-0.301,1.435-0.301c0.606,0,1.127,0.105,1.561,0.315s0.791,0.504,1.071,0.882
		c0.28,0.378,0.485,0.833,0.616,1.365c0.13,0.532,0.196,1.125,0.196,1.778h-4.816c0,0.252,0.037,0.488,0.112,0.707
		c0.074,0.219,0.179,0.411,0.315,0.574c0.135,0.163,0.301,0.292,0.497,0.385c0.196,0.093,0.415,0.14,0.658,0.14
		c0.299,0,0.551-0.082,0.756-0.245c0.206-0.163,0.359-0.427,0.462-0.791L74.367,10.024z M72.561,7.714
		c0-0.467-0.126-0.859-0.378-1.176c-0.252-0.317-0.602-0.476-1.05-0.476c-0.448,0-0.8,0.157-1.057,0.469
		c-0.257,0.313-0.385,0.721-0.385,1.225h2.87V7.714z"/>
	<path d="M75.389,8.274c0-0.532,0.096-1.022,0.287-1.47c0.191-0.448,0.455-0.835,0.791-1.162c0.336-0.327,0.732-0.583,1.19-0.77
		c0.457-0.187,0.947-0.28,1.47-0.28c0.55,0,1.054,0.093,1.512,0.28c0.457,0.187,0.852,0.448,1.183,0.784
		c0.331,0.336,0.59,0.735,0.777,1.197c0.187,0.462,0.28,0.964,0.28,1.505c0,0.541-0.094,1.043-0.28,1.505s-0.443,0.866-0.77,1.211
		s-0.719,0.616-1.176,0.812c-0.458,0.196-0.961,0.294-1.512,0.294c-0.579,0-1.099-0.098-1.561-0.294
		c-0.462-0.196-0.856-0.467-1.183-0.812c-0.327-0.345-0.577-0.756-0.749-1.232C75.475,9.366,75.389,8.844,75.389,8.274z
		 M77.363,8.386c0,0.299,0.035,0.583,0.105,0.854c0.07,0.271,0.18,0.506,0.329,0.707c0.149,0.201,0.333,0.362,0.553,0.483
		c0.219,0.122,0.483,0.182,0.791,0.182c0.299,0,0.56-0.061,0.784-0.182c0.224-0.121,0.408-0.285,0.553-0.49
		c0.145-0.206,0.252-0.443,0.322-0.714c0.07-0.271,0.105-0.555,0.105-0.854c0-0.298-0.035-0.581-0.105-0.847
		c-0.07-0.266-0.18-0.5-0.329-0.7s-0.334-0.362-0.553-0.483c-0.22-0.121-0.479-0.182-0.777-0.182s-0.56,0.059-0.784,0.175
		c-0.224,0.117-0.409,0.277-0.553,0.483c-0.145,0.205-0.254,0.443-0.329,0.714C77.4,7.803,77.363,8.087,77.363,8.386z"/>
	<path d="M85.721,4.746V5.74c0.625-0.765,1.381-1.148,2.268-1.148c0.934,0,1.615,0.383,2.044,1.148
		c0.644-0.765,1.381-1.148,2.212-1.148c0.457,0,0.837,0.068,1.141,0.203c0.303,0.135,0.546,0.324,0.728,0.567
		c0.182,0.243,0.313,0.534,0.392,0.875s0.119,0.716,0.119,1.127v4.648h-1.918V7.868c0-0.271-0.007-0.516-0.021-0.735
		s-0.054-0.408-0.119-0.567s-0.166-0.282-0.301-0.371c-0.136-0.089-0.329-0.133-0.581-0.133c-0.317,0-0.569,0.075-0.756,0.224
		c-0.187,0.149-0.329,0.343-0.427,0.581s-0.164,0.502-0.196,0.791c-0.033,0.29-0.049,0.579-0.049,0.868v3.486h-1.918V8.036
		c0-0.719-0.033-1.176-0.098-1.372c-0.075-0.214-0.185-0.369-0.329-0.462c-0.145-0.093-0.338-0.14-0.581-0.14
		c-0.336,0-0.6,0.07-0.791,0.21c-0.191,0.14-0.336,0.325-0.434,0.553c-0.098,0.229-0.161,0.488-0.189,0.777
		c-0.028,0.29-0.042,0.583-0.042,0.882v3.528h-1.918V4.746H85.721z"/>
	<path d="M102.395,10.024c-0.243,0.7-0.63,1.234-1.162,1.603c-0.532,0.369-1.199,0.553-2.002,0.553
		c-0.579,0-1.087-0.091-1.526-0.273c-0.439-0.182-0.805-0.438-1.099-0.77c-0.294-0.331-0.516-0.726-0.665-1.183
		c-0.149-0.457-0.224-0.961-0.224-1.512c0-0.532,0.072-1.034,0.217-1.505c0.145-0.471,0.357-0.879,0.637-1.225
		c0.28-0.345,0.627-0.618,1.043-0.819c0.416-0.201,0.894-0.301,1.435-0.301c0.606,0,1.127,0.105,1.561,0.315
		s0.791,0.504,1.071,0.882c0.28,0.378,0.485,0.833,0.616,1.365c0.13,0.532,0.196,1.125,0.196,1.778h-4.816
		c0,0.252,0.037,0.488,0.112,0.707c0.074,0.219,0.179,0.411,0.315,0.574c0.135,0.163,0.301,0.292,0.497,0.385
		c0.196,0.093,0.415,0.14,0.658,0.14c0.299,0,0.551-0.082,0.756-0.245c0.206-0.163,0.359-0.427,0.462-0.791L102.395,10.024z
		 M100.588,7.714c0-0.467-0.126-0.859-0.378-1.176c-0.252-0.317-0.602-0.476-1.05-0.476c-0.448,0-0.8,0.157-1.057,0.469
		c-0.257,0.313-0.385,0.721-0.385,1.225h2.87V7.714z"/>
	<path d="M107.35,6.286h-1.316v2.926c0,0.299,0.002,0.534,0.007,0.707c0.005,0.172,0.012,0.282,0.021,0.329
		c0.028,0.112,0.091,0.196,0.189,0.252c0.098,0.056,0.203,0.084,0.315,0.084c0.187,0,0.443-0.061,0.77-0.182l0.168,1.484
		c-0.448,0.196-0.957,0.294-1.526,0.294c-1.073,0-1.675-0.457-1.806-1.372c-0.019-0.121-0.035-0.294-0.049-0.518
		c-0.014-0.224-0.021-0.504-0.021-0.84V6.286h-0.882v-1.54h0.882V3.304l1.932-1.12v2.562h1.316V6.286z"/>
	<path d="M108.498,12.012V4.746h1.778v1.036c0.308-0.467,0.583-0.789,0.826-0.966c0.243-0.149,0.522-0.224,0.84-0.224
		c0.429,0,0.849,0.121,1.26,0.364L112.6,6.622c-0.317-0.205-0.616-0.308-0.896-0.308c-0.29,0-0.521,0.08-0.693,0.238
		c-0.173,0.159-0.304,0.399-0.392,0.721c-0.089,0.322-0.145,0.723-0.168,1.204c-0.023,0.481-0.035,1.043-0.035,1.687v1.848H108.498z
		"/>
	<path d="M115.89,4.746l1.736,5.166l1.694-5.166h1.988l-2.562,6.986c-0.159,0.42-0.29,0.763-0.392,1.029s-0.189,0.48-0.259,0.644
		c-0.07,0.163-0.126,0.285-0.168,0.364c-0.042,0.08-0.082,0.147-0.119,0.203c-0.252,0.373-0.555,0.63-0.91,0.77
		c-0.354,0.14-0.798,0.21-1.33,0.21c-0.187,0-0.369-0.007-0.546-0.021s-0.359-0.044-0.546-0.091l-0.168-1.498
		c0.308,0.056,0.579,0.084,0.812,0.084s0.429-0.035,0.588-0.105c0.159-0.07,0.294-0.168,0.406-0.294
		c0.112-0.126,0.205-0.275,0.28-0.448s0.145-0.357,0.21-0.553l-2.758-7.28H115.89z"/>
	<path d="M126.04,1.988h6.86v1.694h-4.844v2.38h4.186v1.694h-4.186v4.256h-2.016V1.988z"/>
	<path d="M133.488,8.274c0-0.532,0.096-1.022,0.287-1.47c0.191-0.448,0.455-0.835,0.791-1.162c0.336-0.327,0.732-0.583,1.19-0.77
		c0.457-0.187,0.947-0.28,1.47-0.28c0.55,0,1.054,0.093,1.512,0.28c0.457,0.187,0.852,0.448,1.183,0.784
		c0.331,0.336,0.59,0.735,0.777,1.197c0.187,0.462,0.28,0.964,0.28,1.505c0,0.541-0.094,1.043-0.28,1.505s-0.443,0.866-0.77,1.211
		s-0.719,0.616-1.176,0.812c-0.458,0.196-0.961,0.294-1.512,0.294c-0.579,0-1.099-0.098-1.561-0.294
		c-0.462-0.196-0.856-0.467-1.183-0.812c-0.327-0.345-0.577-0.756-0.749-1.232C133.574,9.366,133.488,8.844,133.488,8.274z
		 M135.462,8.386c0,0.299,0.035,0.583,0.105,0.854c0.07,0.271,0.18,0.506,0.329,0.707c0.149,0.201,0.333,0.362,0.553,0.483
		c0.219,0.122,0.483,0.182,0.791,0.182c0.299,0,0.56-0.061,0.784-0.182c0.224-0.121,0.408-0.285,0.553-0.49
		c0.145-0.206,0.252-0.443,0.322-0.714c0.07-0.271,0.105-0.555,0.105-0.854c0-0.298-0.035-0.581-0.105-0.847
		c-0.07-0.266-0.18-0.5-0.329-0.7s-0.334-0.362-0.553-0.483c-0.22-0.121-0.479-0.182-0.777-0.182s-0.56,0.059-0.784,0.175
		c-0.224,0.117-0.409,0.277-0.553,0.483c-0.145,0.205-0.254,0.443-0.329,0.714C135.499,7.803,135.462,8.087,135.462,8.386z"/>
	<path d="M142.056,12.012V4.746h1.778v1.036c0.308-0.467,0.583-0.789,0.826-0.966c0.243-0.149,0.522-0.224,0.84-0.224
		c0.429,0,0.849,0.121,1.26,0.364l-0.602,1.666c-0.317-0.205-0.616-0.308-0.896-0.308c-0.29,0-0.521,0.08-0.693,0.238
		c-0.173,0.159-0.304,0.399-0.392,0.721c-0.089,0.322-0.145,0.723-0.168,1.204c-0.023,0.481-0.035,1.043-0.035,1.687v1.848H142.056z
		"/>
	<path d="M149.294,4.746V5.74c0.625-0.765,1.381-1.148,2.268-1.148c0.934,0,1.615,0.383,2.044,1.148
		c0.644-0.765,1.381-1.148,2.212-1.148c0.457,0,0.837,0.068,1.141,0.203c0.303,0.135,0.546,0.324,0.728,0.567
		c0.182,0.243,0.313,0.534,0.392,0.875s0.119,0.716,0.119,1.127v4.648h-1.918V7.868c0-0.271-0.007-0.516-0.021-0.735
		s-0.054-0.408-0.119-0.567s-0.166-0.282-0.301-0.371c-0.136-0.089-0.329-0.133-0.581-0.133c-0.317,0-0.569,0.075-0.756,0.224
		c-0.187,0.149-0.329,0.343-0.427,0.581s-0.164,0.502-0.196,0.791c-0.033,0.29-0.049,0.579-0.049,0.868v3.486h-1.918V8.036
		c0-0.719-0.033-1.176-0.098-1.372c-0.075-0.214-0.185-0.369-0.329-0.462c-0.145-0.093-0.338-0.14-0.581-0.14
		c-0.336,0-0.6,0.07-0.791,0.21c-0.191,0.14-0.336,0.325-0.434,0.553c-0.098,0.229-0.161,0.488-0.189,0.777
		c-0.028,0.29-0.042,0.583-0.042,0.882v3.528h-1.918V4.746H149.294z"/>
	<path d="M164.246,10.92c-0.261,0.392-0.609,0.7-1.043,0.924s-0.889,0.336-1.365,0.336c-0.429,0-0.795-0.07-1.099-0.21
		c-0.304-0.14-0.553-0.336-0.749-0.588c-0.196-0.252-0.338-0.551-0.427-0.896s-0.133-0.723-0.133-1.134V4.746h1.904v4.242
		c0,0.252,0.012,0.483,0.035,0.693c0.023,0.21,0.077,0.392,0.161,0.546c0.084,0.154,0.208,0.273,0.371,0.357
		c0.163,0.084,0.38,0.126,0.651,0.126c0.308,0,0.595-0.084,0.861-0.252s0.45-0.396,0.553-0.686c0.093-0.252,0.14-0.905,0.14-1.96
		V4.746h1.932v7.266h-1.792V10.92z"/>
	<path d="M167.213,1.988h1.918v10.024h-1.918V1.988z"/>
	<path d="M170.293,6.65c0.121-0.392,0.273-0.719,0.455-0.98c0.182-0.261,0.399-0.474,0.651-0.637
		c0.252-0.163,0.546-0.278,0.882-0.343c0.336-0.065,0.719-0.098,1.148-0.098c0.308,0,0.602,0.012,0.882,0.035
		c0.28,0.023,0.544,0.072,0.791,0.147c0.248,0.075,0.469,0.182,0.665,0.322c0.196,0.14,0.355,0.332,0.476,0.574
		c0.037,0.065,0.07,0.154,0.098,0.266c0.028,0.112,0.051,0.278,0.07,0.497c0.019,0.22,0.033,0.509,0.042,0.868
		s0.014,0.819,0.014,1.379c0,0.159,0,0.35,0,0.574c0,0.224,0.004,0.448,0.014,0.672c0.009,0.224,0.019,0.439,0.028,0.644
		s0.028,0.364,0.056,0.476c0.056,0.289,0.168,0.611,0.336,0.966h-1.89c-0.047-0.112-0.107-0.303-0.182-0.574
		c-0.019-0.056-0.033-0.103-0.042-0.14s-0.019-0.065-0.028-0.084c-0.653,0.644-1.405,0.966-2.254,0.966
		c-0.747,0-1.335-0.205-1.764-0.616c-0.429-0.401-0.644-0.915-0.644-1.54c0-0.411,0.096-0.777,0.287-1.099
		c0.191-0.322,0.464-0.562,0.819-0.721c0.187-0.093,0.406-0.175,0.658-0.245c0.252-0.07,0.546-0.142,0.882-0.217
		c0.887-0.168,1.507-0.322,1.862-0.462V7.084c0-0.42-0.107-0.695-0.322-0.826s-0.542-0.196-0.98-0.196
		c-0.345,0-0.614,0.065-0.805,0.196s-0.348,0.369-0.469,0.714L170.293,6.65z M174.122,8.666c-0.191,0.047-0.422,0.098-0.693,0.154
		c-0.196,0.037-0.378,0.079-0.546,0.126s-0.317,0.105-0.448,0.175c-0.131,0.07-0.233,0.161-0.308,0.273
		c-0.075,0.112-0.112,0.257-0.112,0.434c0,0.299,0.105,0.539,0.315,0.721s0.46,0.273,0.749,0.273c0.29,0,0.532-0.049,0.728-0.147
		c0.196-0.098,0.353-0.236,0.469-0.413s0.201-0.383,0.252-0.616c0.051-0.233,0.077-0.48,0.077-0.742V8.526
		C174.475,8.573,174.313,8.62,174.122,8.666z"/>
	<path d="M183.691,8.554c0.121,0.672,0.361,1.162,0.721,1.47c0.359,0.308,0.847,0.462,1.463,0.462c0.243,0,0.48-0.026,0.714-0.077
		s0.443-0.133,0.63-0.245c0.187-0.112,0.338-0.256,0.455-0.434c0.117-0.177,0.175-0.387,0.175-0.63c0-0.243-0.07-0.445-0.21-0.609
		c-0.14-0.163-0.383-0.306-0.728-0.427c-0.336-0.112-0.688-0.217-1.057-0.315c-0.369-0.098-0.73-0.2-1.085-0.308
		c-0.355-0.107-0.696-0.233-1.022-0.378c-0.327-0.145-0.614-0.324-0.861-0.539c-0.247-0.215-0.443-0.476-0.588-0.784
		c-0.145-0.308-0.217-0.681-0.217-1.12c0-0.504,0.107-0.933,0.322-1.288c0.215-0.354,0.495-0.644,0.84-0.868
		c0.345-0.224,0.735-0.387,1.169-0.49c0.434-0.103,0.875-0.154,1.323-0.154c0.551,0,1.055,0.058,1.512,0.175
		c0.457,0.117,0.852,0.296,1.183,0.539c0.332,0.243,0.597,0.558,0.798,0.945c0.201,0.388,0.319,0.847,0.357,1.379l-2.03,0.084
		c-0.084-0.523-0.268-0.894-0.553-1.113c-0.285-0.219-0.712-0.329-1.281-0.329c-0.187,0-0.38,0.014-0.581,0.042
		c-0.201,0.028-0.385,0.077-0.553,0.147c-0.168,0.07-0.306,0.17-0.413,0.301s-0.161,0.294-0.161,0.49
		c0,0.262,0.084,0.476,0.252,0.644c0.168,0.168,0.39,0.313,0.665,0.434c0.275,0.122,0.588,0.229,0.938,0.322
		c0.35,0.093,0.707,0.196,1.071,0.308c0.364,0.112,0.721,0.241,1.071,0.385c0.35,0.145,0.663,0.327,0.938,0.546
		s0.497,0.49,0.665,0.812c0.168,0.322,0.252,0.712,0.252,1.169c0,0.56-0.114,1.036-0.343,1.428c-0.229,0.392-0.53,0.712-0.903,0.959
		c-0.373,0.247-0.8,0.427-1.281,0.539c-0.481,0.112-0.973,0.168-1.477,0.168c-1.279,0-2.256-0.292-2.933-0.875
		s-1.08-1.44-1.211-2.569L183.691,8.554z"/>
	<path d="M192.889,5.67c0.635-0.719,1.376-1.078,2.226-1.078c0.504,0,0.915,0.082,1.232,0.245c0.317,0.163,0.567,0.387,0.749,0.672
		s0.308,0.621,0.378,1.008c0.07,0.388,0.105,0.8,0.105,1.239v4.256h-1.918V8.176c0-0.327-0.007-0.621-0.021-0.882
		s-0.059-0.483-0.133-0.665c-0.075-0.182-0.191-0.322-0.35-0.42c-0.159-0.098-0.388-0.147-0.686-0.147
		c-0.327,0-0.593,0.065-0.798,0.196c-0.206,0.131-0.367,0.303-0.483,0.518s-0.196,0.459-0.238,0.735s-0.063,0.562-0.063,0.861v3.64
		h-1.918V1.988h1.918V5.67z"/>
	<path d="M204.971,10.024c-0.243,0.7-0.63,1.234-1.162,1.603c-0.532,0.369-1.199,0.553-2.002,0.553
		c-0.579,0-1.087-0.091-1.526-0.273c-0.439-0.182-0.805-0.438-1.099-0.77c-0.294-0.331-0.516-0.726-0.665-1.183
		c-0.149-0.457-0.224-0.961-0.224-1.512c0-0.532,0.072-1.034,0.217-1.505c0.145-0.471,0.357-0.879,0.637-1.225
		c0.28-0.345,0.627-0.618,1.043-0.819c0.416-0.201,0.894-0.301,1.435-0.301c0.606,0,1.127,0.105,1.561,0.315
		s0.791,0.504,1.071,0.882c0.28,0.378,0.485,0.833,0.616,1.365c0.13,0.532,0.196,1.125,0.196,1.778h-4.816
		c0,0.252,0.037,0.488,0.112,0.707c0.074,0.219,0.179,0.411,0.315,0.574c0.135,0.163,0.301,0.292,0.497,0.385
		c0.196,0.093,0.415,0.14,0.658,0.14c0.299,0,0.551-0.082,0.756-0.245c0.206-0.163,0.359-0.427,0.462-0.791L204.971,10.024z
		 M203.165,7.714c0-0.467-0.126-0.859-0.378-1.176c-0.252-0.317-0.602-0.476-1.05-0.476c-0.448,0-0.8,0.157-1.057,0.469
		c-0.257,0.313-0.385,0.721-0.385,1.225h2.87V7.714z"/>
	<path d="M212.671,10.024c-0.243,0.7-0.63,1.234-1.162,1.603c-0.532,0.369-1.199,0.553-2.002,0.553
		c-0.579,0-1.087-0.091-1.526-0.273c-0.439-0.182-0.805-0.438-1.099-0.77c-0.294-0.331-0.516-0.726-0.665-1.183
		c-0.149-0.457-0.224-0.961-0.224-1.512c0-0.532,0.072-1.034,0.217-1.505c0.145-0.471,0.357-0.879,0.637-1.225
		c0.28-0.345,0.627-0.618,1.043-0.819c0.416-0.201,0.894-0.301,1.435-0.301c0.606,0,1.127,0.105,1.561,0.315
		s0.791,0.504,1.071,0.882c0.28,0.378,0.485,0.833,0.616,1.365c0.13,0.532,0.196,1.125,0.196,1.778h-4.816
		c0,0.252,0.037,0.488,0.112,0.707c0.074,0.219,0.179,0.411,0.315,0.574c0.135,0.163,0.301,0.292,0.497,0.385
		c0.196,0.093,0.415,0.14,0.658,0.14c0.299,0,0.551-0.082,0.756-0.245c0.206-0.163,0.359-0.427,0.462-0.791L212.671,10.024z
		 M210.865,7.714c0-0.467-0.126-0.859-0.378-1.176c-0.252-0.317-0.602-0.476-1.05-0.476c-0.448,0-0.8,0.157-1.057,0.469
		c-0.257,0.313-0.385,0.721-0.385,1.225h2.87V7.714z"/>
	<path d="M217.627,6.286h-1.316v2.926c0,0.299,0.002,0.534,0.007,0.707c0.005,0.172,0.012,0.282,0.021,0.329
		c0.028,0.112,0.091,0.196,0.189,0.252c0.098,0.056,0.203,0.084,0.314,0.084c0.188,0,0.444-0.061,0.771-0.182l0.168,1.484
		c-0.448,0.196-0.956,0.294-1.526,0.294c-1.073,0-1.675-0.457-1.806-1.372c-0.019-0.121-0.035-0.294-0.049-0.518
		c-0.014-0.224-0.021-0.504-0.021-0.84V6.286h-0.882v-1.54h0.882V3.304l1.932-1.12v2.562h1.316V6.286z"/>
</g>
<g>
</g>
<g>
</g>
<g>
</g>
<g>
</g>
<g>
</g>
<g>
</g>
</svg>
